<svg width="709" height="945" viewBox="0 0 709 945" fill="none" xmlns="http://www.w3.org/2000/svg">
<path d="M354.375 0C158.961 0 0 158.98 0 354.375C0 615.811 326.959 926.543 340.879 939.655C344.685 943.211 349.53 945 354.375 945C359.22 945 364.065 943.211 367.873 939.655C381.791 926.543 708.75 615.811 708.75 354.375C708.75 158.98 549.789 0 354.375 0ZM367.873 564.5C259.321 564.5 157.499 465.937 157.499 354.375C157.499 245.824 245.825 157.499 354.375 157.499C462.924 157.499 564.748 259.075 564.748 367.624C564.5 477.5 477.5 564.5 367.873 564.5Z" fill="url(#paint0_linear)"/>
<path d="M564.748 367.624C564.5 477.5 477.501 564.5 367.873 564.5C259.321 564.5 157.499 465.937 157.499 354.375C157.499 242.813 244.746 157.499 354.375 157.499C464.003 157.499 564.748 256.063 564.748 367.624Z" fill="url(#paint1_linear)"/>
<g clip-path="url(#clip0)">
<g filter="url(#filter0_f)">
<mask id="path-2-inside-1" fill="white">
<path d="M217.153 327.158C221.806 341.346 229.848 346.874 240.007 359.701C245.302 365.881 246.5 374.631 243.058 381.999C235.622 397.95 236.841 420.435 234.982 436.266C233.508 448.799 229.419 461.62 222.481 475.464C213.964 492.472 220.421 513.279 240.059 522.952C277.069 540.65 277.707 542.786 283.843 542.784C289.55 542.784 295.15 539.558 297.744 533.854C298.484 532.232 300.597 531.72 302.026 533.007C303.801 534.599 325.671 554.316 326.773 555.299L326.772 555.301C335.968 563.595 354.904 561.497 364.327 562.353C375.893 563.402 385.461 553.485 383.946 541.985C382.89 533.956 386.74 526.127 393.755 522.04C403.976 516.083 412.628 509.069 422.345 512.725L432.375 516.479H432.376H432.378C433.074 516.74 455.729 525.211 456.364 525.446L456.363 525.448C468.827 530.112 481.485 525.583 493.156 523.016C507.485 519.859 515.371 507.518 523.251 497.813C531.471 487.703 529.514 472.826 518.965 465.169L510.528 459.05C509.416 458.243 508.641 457.057 508.351 455.72L504.646 438.577C504.126 436.182 505.274 433.687 507.437 432.51C516.886 427.367 519.82 415.158 513.669 406.293C511.831 403.258 508.989 401.214 509.504 397.791L510.609 390.429C512.103 380.51 504.03 371.781 494.016 372.432C491.626 372.588 489.944 370.153 490.908 367.986L506.603 332.763C508.047 329.516 511.277 327.473 514.851 327.561C526.065 327.849 535.78 319.319 536.667 307.913C539.15 280.77 537.974 279.651 540.354 276.561C549.209 265.012 543.28 248.188 529.135 244.696L505.856 238.963C502.015 238.015 501.653 235.746 491.402 224.961C486.145 219.162 480.595 218.724 473.647 217.504C456.295 214.459 456.034 214.22 437.884 203.042C437.882 203.04 437.878 203.039 437.876 203.037C427.166 196.932 425.585 192.719 410.53 176.332C399.383 163.792 381.961 156 365.061 156H356.088C348.397 156 341.891 161.737 340.954 169.332L338.323 190.309C337.667 195.553 333.524 199.613 328.255 200.181C317.166 201.359 310.2 202.074 302.107 210.402C302.025 210.486 301.755 210.77 301.837 210.685C301.127 211.429 300.637 211.919 300.187 212.766C297.909 217.054 292.669 218.801 288.263 216.746C288.263 216.746 261.782 204.367 261.458 204.215C246.415 197.186 228.566 212.902 234.382 228.733L240.482 245.359C241.25 247.454 239.293 249.483 237.183 248.848C195.672 236.33 196.972 236.183 192.36 237.068L167.452 241.802C151.849 244.767 143.465 261.829 150.688 275.955C153.95 282.344 156.683 287.478 164.509 290.803L196.062 304.195C205.938 308.388 213.657 316.636 217.153 327.158ZM540.139 276.827C539.81 277.234 539.339 277.66 538.757 278.028C539.269 277.701 539.736 277.297 540.139 276.827ZM216.916 326.173C216.94 326.331 216.971 326.488 217.008 326.643C216.981 326.534 216.947 326.372 216.916 326.173ZM161.777 270.038C158.571 263.428 162.497 255.507 169.805 254.119C202.661 247.873 193.066 249.708 194.903 249.347C196.983 249.639 207.178 252.899 233.551 260.851C245.581 264.473 256.603 252.82 252.285 241.049L246.185 224.42C244.291 219.265 251.084 213.213 256.115 215.564C256.257 215.631 282.931 228.1 282.936 228.103C288.636 230.76 294.918 230.745 300.334 228.538V414.308C300.334 417.77 303.148 420.578 306.618 420.578C310.087 420.578 312.903 417.775 312.903 414.308V217.457C317.25 213.754 321.327 213.527 329.598 212.648C340.697 211.452 349.414 202.904 350.795 191.863L353.427 170.877C353.591 169.545 354.736 168.54 356.088 168.54H365.062C378.271 168.54 392.426 174.865 401.124 184.653C416.366 201.031 417.187 204.672 428.298 211.846V275.555C428.298 279.017 431.111 281.824 434.582 281.824C438.053 281.824 440.866 279.017 440.866 275.555V219.464C454.264 227.472 457.58 227.28 477.776 230.983C479.449 231.288 480.936 232.115 482.075 233.372L492.675 245.084C495.391 248.074 498.904 250.168 502.837 251.141L526.119 256.873C531.482 258.198 533.739 264.555 530.37 268.946L530.395 268.964C527.529 272.25 526.412 277.842 526.274 279.64L524.137 306.944C523.775 311.591 519.838 315.147 515.158 315.03C506.493 314.813 498.627 319.783 495.116 327.678L479.42 362.902C474.62 373.704 483.028 385.713 494.833 384.948C496.857 384.814 498.481 386.568 498.18 388.571L497.074 395.935C495.661 405.332 501.902 411.013 502.916 412.788C503.027 412.983 503.147 413.172 503.279 413.353C505.241 416.08 504.377 419.895 501.42 421.504C494.395 425.326 490.67 433.439 492.361 441.228L496.066 458.374C497.015 462.732 499.526 466.576 503.137 469.195L511.573 475.312C516.291 478.737 517.169 485.392 513.488 489.919C506.664 498.321 500.04 508.661 490.448 510.774C480.622 512.936 469.37 516.925 460.778 513.709C460.679 513.673 440.994 506.312 440.867 506.265V300.631C440.867 297.169 438.053 294.362 434.583 294.362C431.111 294.362 428.299 297.169 428.299 300.631V501.562L426.77 500.99C411.314 495.175 399.229 504.328 387.417 511.214C376.024 517.851 369.77 530.57 371.485 543.618C371.951 547.141 369.02 550.187 365.467 549.866C357.333 549.126 340.158 550.374 335.169 545.971C334.728 545.575 316.349 529.014 312.905 525.912V439.386C312.905 435.94 310.11 433.117 306.621 433.117C303.14 433.117 300.337 435.938 300.337 439.386V519.736C294.416 519.725 288.905 522.963 286.303 528.666C285.678 530.041 284.032 530.63 282.667 529.957L245.624 511.708C232.051 505.023 228.41 491.682 233.725 481.071C241.325 465.905 245.82 451.728 247.467 437.726C249.351 421.667 248.25 400.596 254.454 387.292C259.969 375.488 258.049 361.46 249.566 351.557C238.952 338.331 232.712 334.27 229.1 323.259L229.086 323.263C228.317 320.378 226.238 315.738 223.439 311.469C217.924 303.056 210.161 296.551 200.987 292.656L169.432 279.266C164.332 277.099 163.408 272.742 161.777 270.038Z"/>
</mask>
<path d="M217.153 327.158C221.806 341.346 229.848 346.874 240.007 359.701C245.302 365.881 246.5 374.631 243.058 381.999C235.622 397.95 236.841 420.435 234.982 436.266C233.508 448.799 229.419 461.62 222.481 475.464C213.964 492.472 220.421 513.279 240.059 522.952C277.069 540.65 277.707 542.786 283.843 542.784C289.55 542.784 295.15 539.558 297.744 533.854C298.484 532.232 300.597 531.72 302.026 533.007C303.801 534.599 325.671 554.316 326.773 555.299L326.772 555.301C335.968 563.595 354.904 561.497 364.327 562.353C375.893 563.402 385.461 553.485 383.946 541.985C382.89 533.956 386.74 526.127 393.755 522.04C403.976 516.083 412.628 509.069 422.345 512.725L432.375 516.479H432.376H432.378C433.074 516.74 455.729 525.211 456.364 525.446L456.363 525.448C468.827 530.112 481.485 525.583 493.156 523.016C507.485 519.859 515.371 507.518 523.251 497.813C531.471 487.703 529.514 472.826 518.965 465.169L510.528 459.05C509.416 458.243 508.641 457.057 508.351 455.72L504.646 438.577C504.126 436.182 505.274 433.687 507.437 432.51C516.886 427.367 519.82 415.158 513.669 406.293C511.831 403.258 508.989 401.214 509.504 397.791L510.609 390.429C512.103 380.51 504.03 371.781 494.016 372.432C491.626 372.588 489.944 370.153 490.908 367.986L506.603 332.763C508.047 329.516 511.277 327.473 514.851 327.561C526.065 327.849 535.78 319.319 536.667 307.913C539.15 280.77 537.974 279.651 540.354 276.561C549.209 265.012 543.28 248.188 529.135 244.696L505.856 238.963C502.015 238.015 501.653 235.746 491.402 224.961C486.145 219.162 480.595 218.724 473.647 217.504C456.295 214.459 456.034 214.22 437.884 203.042C437.882 203.04 437.878 203.039 437.876 203.037C427.166 196.932 425.585 192.719 410.53 176.332C399.383 163.792 381.961 156 365.061 156H356.088C348.397 156 341.891 161.737 340.954 169.332L338.323 190.309C337.667 195.553 333.524 199.613 328.255 200.181C317.166 201.359 310.2 202.074 302.107 210.402C302.025 210.486 301.755 210.77 301.837 210.685C301.127 211.429 300.637 211.919 300.187 212.766C297.909 217.054 292.669 218.801 288.263 216.746C288.263 216.746 261.782 204.367 261.458 204.215C246.415 197.186 228.566 212.902 234.382 228.733L240.482 245.359C241.25 247.454 239.293 249.483 237.183 248.848C195.672 236.33 196.972 236.183 192.36 237.068L167.452 241.802C151.849 244.767 143.465 261.829 150.688 275.955C153.95 282.344 156.683 287.478 164.509 290.803L196.062 304.195C205.938 308.388 213.657 316.636 217.153 327.158ZM540.139 276.827C539.81 277.234 539.339 277.66 538.757 278.028C539.269 277.701 539.736 277.297 540.139 276.827ZM216.916 326.173C216.94 326.331 216.971 326.488 217.008 326.643C216.981 326.534 216.947 326.372 216.916 326.173ZM161.777 270.038C158.571 263.428 162.497 255.507 169.805 254.119C202.661 247.873 193.066 249.708 194.903 249.347C196.983 249.639 207.178 252.899 233.551 260.851C245.581 264.473 256.603 252.82 252.285 241.049L246.185 224.42C244.291 219.265 251.084 213.213 256.115 215.564C256.257 215.631 282.931 228.1 282.936 228.103C288.636 230.76 294.918 230.745 300.334 228.538V414.308C300.334 417.77 303.148 420.578 306.618 420.578C310.087 420.578 312.903 417.775 312.903 414.308V217.457C317.25 213.754 321.327 213.527 329.598 212.648C340.697 211.452 349.414 202.904 350.795 191.863L353.427 170.877C353.591 169.545 354.736 168.54 356.088 168.54H365.062C378.271 168.54 392.426 174.865 401.124 184.653C416.366 201.031 417.187 204.672 428.298 211.846V275.555C428.298 279.017 431.111 281.824 434.582 281.824C438.053 281.824 440.866 279.017 440.866 275.555V219.464C454.264 227.472 457.58 227.28 477.776 230.983C479.449 231.288 480.936 232.115 482.075 233.372L492.675 245.084C495.391 248.074 498.904 250.168 502.837 251.141L526.119 256.873C531.482 258.198 533.739 264.555 530.37 268.946L530.395 268.964C527.529 272.25 526.412 277.842 526.274 279.64L524.137 306.944C523.775 311.591 519.838 315.147 515.158 315.03C506.493 314.813 498.627 319.783 495.116 327.678L479.42 362.902C474.62 373.704 483.028 385.713 494.833 384.948C496.857 384.814 498.481 386.568 498.18 388.571L497.074 395.935C495.661 405.332 501.902 411.013 502.916 412.788C503.027 412.983 503.147 413.172 503.279 413.353C505.241 416.08 504.377 419.895 501.42 421.504C494.395 425.326 490.67 433.439 492.361 441.228L496.066 458.374C497.015 462.732 499.526 466.576 503.137 469.195L511.573 475.312C516.291 478.737 517.169 485.392 513.488 489.919C506.664 498.321 500.04 508.661 490.448 510.774C480.622 512.936 469.37 516.925 460.778 513.709C460.679 513.673 440.994 506.312 440.867 506.265V300.631C440.867 297.169 438.053 294.362 434.583 294.362C431.111 294.362 428.299 297.169 428.299 300.631V501.562L426.77 500.99C411.314 495.175 399.229 504.328 387.417 511.214C376.024 517.851 369.77 530.57 371.485 543.618C371.951 547.141 369.02 550.187 365.467 549.866C357.333 549.126 340.158 550.374 335.169 545.971C334.728 545.575 316.349 529.014 312.905 525.912V439.386C312.905 435.94 310.11 433.117 306.621 433.117C303.14 433.117 300.337 435.938 300.337 439.386V519.736C294.416 519.725 288.905 522.963 286.303 528.666C285.678 530.041 284.032 530.63 282.667 529.957L245.624 511.708C232.051 505.023 228.41 491.682 233.725 481.071C241.325 465.905 245.82 451.728 247.467 437.726C249.351 421.667 248.25 400.596 254.454 387.292C259.969 375.488 258.049 361.46 249.566 351.557C238.952 338.331 232.712 334.27 229.1 323.259L229.086 323.263C228.317 320.378 226.238 315.738 223.439 311.469C217.924 303.056 210.161 296.551 200.987 292.656L169.432 279.266C164.332 277.099 163.408 272.742 161.777 270.038Z" fill="white" stroke="white" stroke-width="10" mask="url(#path-2-inside-1)"/>
</g>
</g>
<path d="M354.375 0C158.961 0 0 158.98 0 354.375C0 615.811 326.959 926.543 340.879 939.655C344.685 943.211 349.53 945 354.375 945C359.22 945 364.065 943.211 367.873 939.655C381.791 926.543 708.75 615.811 708.75 354.375C708.75 158.98 549.789 0 354.375 0ZM367.873 564.5C259.321 564.5 157.499 465.937 157.499 354.375C157.499 245.824 245.825 157.499 354.375 157.499C462.924 157.499 564.748 259.075 564.748 367.624C564.5 477.5 477.5 564.5 367.873 564.5Z" fill="url(#paint2_linear)"/>
<path d="M564.748 367.624C564.5 477.5 477.501 564.5 367.873 564.5C259.321 564.5 157.499 465.937 157.499 354.375C157.499 242.813 244.746 157.499 354.375 157.499C464.003 157.499 564.748 256.063 564.748 367.624Z" fill="url(#paint3_linear)"/>
<g clip-path="url(#clip1)">
<g filter="url(#filter1_f)">
<mask id="path-4-inside-2" fill="white">
<path d="M217.153 327.158C221.806 341.346 229.848 346.874 240.007 359.701C245.302 365.881 246.5 374.631 243.058 381.999C235.622 397.95 236.841 420.435 234.982 436.266C233.508 448.799 229.419 461.62 222.481 475.464C213.964 492.472 220.421 513.279 240.059 522.952C277.069 540.65 277.707 542.786 283.843 542.784C289.55 542.784 295.15 539.558 297.744 533.854C298.484 532.232 300.597 531.72 302.026 533.007C303.801 534.599 325.671 554.316 326.773 555.299L326.772 555.301C335.968 563.595 354.904 561.497 364.327 562.353C375.893 563.402 385.461 553.485 383.946 541.985C382.89 533.956 386.74 526.127 393.755 522.04C403.976 516.083 412.628 509.069 422.345 512.725L432.375 516.479H432.376H432.378C433.074 516.74 455.729 525.211 456.364 525.446L456.363 525.448C468.827 530.112 481.485 525.583 493.156 523.016C507.485 519.859 515.371 507.518 523.251 497.813C531.471 487.703 529.514 472.826 518.965 465.169L510.528 459.05C509.416 458.243 508.641 457.057 508.351 455.72L504.646 438.577C504.126 436.182 505.274 433.687 507.437 432.51C516.886 427.367 519.82 415.158 513.669 406.293C511.831 403.258 508.989 401.214 509.504 397.791L510.609 390.429C512.103 380.51 504.03 371.781 494.016 372.432C491.626 372.588 489.944 370.153 490.908 367.986L506.603 332.763C508.047 329.516 511.277 327.473 514.851 327.561C526.065 327.849 535.78 319.319 536.667 307.913C539.15 280.77 537.974 279.651 540.354 276.561C549.209 265.012 543.28 248.188 529.135 244.696L505.856 238.963C502.015 238.015 501.653 235.746 491.402 224.961C486.145 219.162 480.595 218.724 473.647 217.504C456.295 214.459 456.034 214.22 437.884 203.042C437.882 203.04 437.878 203.039 437.876 203.037C427.166 196.932 425.585 192.719 410.53 176.332C399.383 163.792 381.961 156 365.061 156H356.088C348.397 156 341.891 161.737 340.954 169.332L338.323 190.309C337.667 195.553 333.524 199.613 328.255 200.181C317.166 201.359 310.2 202.074 302.107 210.402C302.025 210.486 301.755 210.77 301.837 210.685C301.127 211.429 300.637 211.919 300.187 212.766C297.909 217.054 292.669 218.801 288.263 216.746C288.263 216.746 261.782 204.367 261.458 204.215C246.415 197.186 228.566 212.902 234.382 228.733L240.482 245.359C241.25 247.454 239.293 249.483 237.183 248.848C195.672 236.33 196.972 236.183 192.36 237.068L167.452 241.802C151.849 244.767 143.465 261.829 150.688 275.955C153.95 282.344 156.683 287.478 164.509 290.803L196.062 304.195C205.938 308.388 213.657 316.636 217.153 327.158ZM540.139 276.827C539.81 277.234 539.339 277.66 538.757 278.028C539.269 277.701 539.736 277.297 540.139 276.827ZM216.916 326.173C216.94 326.331 216.971 326.488 217.008 326.643C216.981 326.534 216.947 326.372 216.916 326.173ZM161.777 270.038C158.571 263.428 162.497 255.507 169.805 254.119C202.661 247.873 193.066 249.708 194.903 249.347C196.983 249.639 207.178 252.899 233.551 260.851C245.581 264.473 256.603 252.82 252.285 241.049L246.185 224.42C244.291 219.265 251.084 213.213 256.115 215.564C256.257 215.631 282.931 228.1 282.936 228.103C288.636 230.76 294.918 230.745 300.334 228.538V414.308C300.334 417.77 303.148 420.578 306.618 420.578C310.087 420.578 312.903 417.775 312.903 414.308V217.457C317.25 213.754 321.327 213.527 329.598 212.648C340.697 211.452 349.414 202.904 350.795 191.863L353.427 170.877C353.591 169.545 354.736 168.54 356.088 168.54H365.062C378.271 168.54 392.426 174.865 401.124 184.653C416.366 201.031 417.187 204.672 428.298 211.846V275.555C428.298 279.017 431.111 281.824 434.582 281.824C438.053 281.824 440.866 279.017 440.866 275.555V219.464C454.264 227.472 457.58 227.28 477.776 230.983C479.449 231.288 480.936 232.115 482.075 233.372L492.675 245.084C495.391 248.074 498.904 250.168 502.837 251.141L526.119 256.873C531.482 258.198 533.739 264.555 530.37 268.946L530.395 268.964C527.529 272.25 526.412 277.842 526.274 279.64L524.137 306.944C523.775 311.591 519.838 315.147 515.158 315.03C506.493 314.813 498.627 319.783 495.116 327.678L479.42 362.902C474.62 373.704 483.028 385.713 494.833 384.948C496.857 384.814 498.481 386.568 498.18 388.571L497.074 395.935C495.661 405.332 501.902 411.013 502.916 412.788C503.027 412.983 503.147 413.172 503.279 413.353C505.241 416.08 504.377 419.895 501.42 421.504C494.395 425.326 490.67 433.439 492.361 441.228L496.066 458.374C497.015 462.732 499.526 466.576 503.137 469.195L511.573 475.312C516.291 478.737 517.169 485.392 513.488 489.919C506.664 498.321 500.04 508.661 490.448 510.774C480.622 512.936 469.37 516.925 460.778 513.709C460.679 513.673 440.994 506.312 440.867 506.265V300.631C440.867 297.169 438.053 294.362 434.583 294.362C431.111 294.362 428.299 297.169 428.299 300.631V501.562L426.77 500.99C411.314 495.175 399.229 504.328 387.417 511.214C376.024 517.851 369.77 530.57 371.485 543.618C371.951 547.141 369.02 550.187 365.467 549.866C357.333 549.126 340.158 550.374 335.169 545.971C334.728 545.575 316.349 529.014 312.905 525.912V439.386C312.905 435.94 310.11 433.117 306.621 433.117C303.14 433.117 300.337 435.938 300.337 439.386V519.736C294.416 519.725 288.905 522.963 286.303 528.666C285.678 530.041 284.032 530.63 282.667 529.957L245.624 511.708C232.051 505.023 228.41 491.682 233.725 481.071C241.325 465.905 245.82 451.728 247.467 437.726C249.351 421.667 248.25 400.596 254.454 387.292C259.969 375.488 258.049 361.46 249.566 351.557C238.952 338.331 232.712 334.27 229.1 323.259L229.086 323.263C228.317 320.378 226.238 315.738 223.439 311.469C217.924 303.056 210.161 296.551 200.987 292.656L169.432 279.266C164.332 277.099 163.408 272.742 161.777 270.038Z"/>
</mask>
<path d="M217.153 327.158C221.806 341.346 229.848 346.874 240.007 359.701C245.302 365.881 246.5 374.631 243.058 381.999C235.622 397.95 236.841 420.435 234.982 436.266C233.508 448.799 229.419 461.62 222.481 475.464C213.964 492.472 220.421 513.279 240.059 522.952C277.069 540.65 277.707 542.786 283.843 542.784C289.55 542.784 295.15 539.558 297.744 533.854C298.484 532.232 300.597 531.72 302.026 533.007C303.801 534.599 325.671 554.316 326.773 555.299L326.772 555.301C335.968 563.595 354.904 561.497 364.327 562.353C375.893 563.402 385.461 553.485 383.946 541.985C382.89 533.956 386.74 526.127 393.755 522.04C403.976 516.083 412.628 509.069 422.345 512.725L432.375 516.479H432.376H432.378C433.074 516.74 455.729 525.211 456.364 525.446L456.363 525.448C468.827 530.112 481.485 525.583 493.156 523.016C507.485 519.859 515.371 507.518 523.251 497.813C531.471 487.703 529.514 472.826 518.965 465.169L510.528 459.05C509.416 458.243 508.641 457.057 508.351 455.72L504.646 438.577C504.126 436.182 505.274 433.687 507.437 432.51C516.886 427.367 519.82 415.158 513.669 406.293C511.831 403.258 508.989 401.214 509.504 397.791L510.609 390.429C512.103 380.51 504.03 371.781 494.016 372.432C491.626 372.588 489.944 370.153 490.908 367.986L506.603 332.763C508.047 329.516 511.277 327.473 514.851 327.561C526.065 327.849 535.78 319.319 536.667 307.913C539.15 280.77 537.974 279.651 540.354 276.561C549.209 265.012 543.28 248.188 529.135 244.696L505.856 238.963C502.015 238.015 501.653 235.746 491.402 224.961C486.145 219.162 480.595 218.724 473.647 217.504C456.295 214.459 456.034 214.22 437.884 203.042C437.882 203.04 437.878 203.039 437.876 203.037C427.166 196.932 425.585 192.719 410.53 176.332C399.383 163.792 381.961 156 365.061 156H356.088C348.397 156 341.891 161.737 340.954 169.332L338.323 190.309C337.667 195.553 333.524 199.613 328.255 200.181C317.166 201.359 310.2 202.074 302.107 210.402C302.025 210.486 301.755 210.77 301.837 210.685C301.127 211.429 300.637 211.919 300.187 212.766C297.909 217.054 292.669 218.801 288.263 216.746C288.263 216.746 261.782 204.367 261.458 204.215C246.415 197.186 228.566 212.902 234.382 228.733L240.482 245.359C241.25 247.454 239.293 249.483 237.183 248.848C195.672 236.33 196.972 236.183 192.36 237.068L167.452 241.802C151.849 244.767 143.465 261.829 150.688 275.955C153.95 282.344 156.683 287.478 164.509 290.803L196.062 304.195C205.938 308.388 213.657 316.636 217.153 327.158ZM540.139 276.827C539.81 277.234 539.339 277.66 538.757 278.028C539.269 277.701 539.736 277.297 540.139 276.827ZM216.916 326.173C216.94 326.331 216.971 326.488 217.008 326.643C216.981 326.534 216.947 326.372 216.916 326.173ZM161.777 270.038C158.571 263.428 162.497 255.507 169.805 254.119C202.661 247.873 193.066 249.708 194.903 249.347C196.983 249.639 207.178 252.899 233.551 260.851C245.581 264.473 256.603 252.82 252.285 241.049L246.185 224.42C244.291 219.265 251.084 213.213 256.115 215.564C256.257 215.631 282.931 228.1 282.936 228.103C288.636 230.76 294.918 230.745 300.334 228.538V414.308C300.334 417.77 303.148 420.578 306.618 420.578C310.087 420.578 312.903 417.775 312.903 414.308V217.457C317.25 213.754 321.327 213.527 329.598 212.648C340.697 211.452 349.414 202.904 350.795 191.863L353.427 170.877C353.591 169.545 354.736 168.54 356.088 168.54H365.062C378.271 168.54 392.426 174.865 401.124 184.653C416.366 201.031 417.187 204.672 428.298 211.846V275.555C428.298 279.017 431.111 281.824 434.582 281.824C438.053 281.824 440.866 279.017 440.866 275.555V219.464C454.264 227.472 457.58 227.28 477.776 230.983C479.449 231.288 480.936 232.115 482.075 233.372L492.675 245.084C495.391 248.074 498.904 250.168 502.837 251.141L526.119 256.873C531.482 258.198 533.739 264.555 530.37 268.946L530.395 268.964C527.529 272.25 526.412 277.842 526.274 279.64L524.137 306.944C523.775 311.591 519.838 315.147 515.158 315.03C506.493 314.813 498.627 319.783 495.116 327.678L479.42 362.902C474.62 373.704 483.028 385.713 494.833 384.948C496.857 384.814 498.481 386.568 498.18 388.571L497.074 395.935C495.661 405.332 501.902 411.013 502.916 412.788C503.027 412.983 503.147 413.172 503.279 413.353C505.241 416.08 504.377 419.895 501.42 421.504C494.395 425.326 490.67 433.439 492.361 441.228L496.066 458.374C497.015 462.732 499.526 466.576 503.137 469.195L511.573 475.312C516.291 478.737 517.169 485.392 513.488 489.919C506.664 498.321 500.04 508.661 490.448 510.774C480.622 512.936 469.37 516.925 460.778 513.709C460.679 513.673 440.994 506.312 440.867 506.265V300.631C440.867 297.169 438.053 294.362 434.583 294.362C431.111 294.362 428.299 297.169 428.299 300.631V501.562L426.77 500.99C411.314 495.175 399.229 504.328 387.417 511.214C376.024 517.851 369.77 530.57 371.485 543.618C371.951 547.141 369.02 550.187 365.467 549.866C357.333 549.126 340.158 550.374 335.169 545.971C334.728 545.575 316.349 529.014 312.905 525.912V439.386C312.905 435.94 310.11 433.117 306.621 433.117C303.14 433.117 300.337 435.938 300.337 439.386V519.736C294.416 519.725 288.905 522.963 286.303 528.666C285.678 530.041 284.032 530.63 282.667 529.957L245.624 511.708C232.051 505.023 228.41 491.682 233.725 481.071C241.325 465.905 245.82 451.728 247.467 437.726C249.351 421.667 248.25 400.596 254.454 387.292C259.969 375.488 258.049 361.46 249.566 351.557C238.952 338.331 232.712 334.27 229.1 323.259L229.086 323.263C228.317 320.378 226.238 315.738 223.439 311.469C217.924 303.056 210.161 296.551 200.987 292.656L169.432 279.266C164.332 277.099 163.408 272.742 161.777 270.038Z" fill="white" stroke="white" stroke-width="10" mask="url(#path-4-inside-2)"/>
</g>
</g>
<defs>
<filter id="filter0_f" x="144.066" y="152" width="404.463" height="414.429" filterUnits="userSpaceOnUse" color-interpolation-filters="sRGB">
<feFlood flood-opacity="0" result="BackgroundImageFix"/>
<feBlend mode="normal" in="SourceGraphic" in2="BackgroundImageFix" result="shape"/>
<feGaussianBlur stdDeviation="2" result="effect1_foregroundBlur"/>
</filter>
<filter id="filter1_f" x="144.066" y="152" width="404.463" height="414.429" filterUnits="userSpaceOnUse" color-interpolation-filters="sRGB">
<feFlood flood-opacity="0" result="BackgroundImageFix"/>
<feBlend mode="normal" in="SourceGraphic" in2="BackgroundImageFix" result="shape"/>
<feGaussianBlur stdDeviation="2" result="effect1_foregroundBlur"/>
</filter>
<linearGradient id="paint0_linear" x1="354.375" y1="0" x2="354.375" y2="945" gradientUnits="userSpaceOnUse">
<stop offset="0.0833333" stop-color="#192DDE"/>
<stop offset="0.609375" stop-color="#5CA2E7"/>
<stop offset="1" stop-color="#90FCED" stop-opacity="0.505682"/>
</linearGradient>
<linearGradient id="paint1_linear" x1="354.375" y1="0" x2="354.375" y2="945" gradientUnits="userSpaceOnUse">
<stop offset="0.0833333" stop-color="#192DDE"/>
<stop offset="0.609375" stop-color="#5CA2E7"/>
<stop offset="1" stop-color="#90FCED" stop-opacity="0.505682"/>
</linearGradient>
<linearGradient id="paint2_linear" x1="354.375" y1="0" x2="354.375" y2="945" gradientUnits="userSpaceOnUse">
<stop offset="0.203125" stop-color="#5CA2E7"/>
<stop offset="0.588542" stop-color="#90FCE2" stop-opacity="0.53"/>
<stop offset="0.708333" stop-color="white" stop-opacity="0.85"/>
<stop offset="0.84375" stop-color="#FFC743"/>
</linearGradient>
<linearGradient id="paint3_linear" x1="354.375" y1="0" x2="354.375" y2="945" gradientUnits="userSpaceOnUse">
<stop offset="0.203125" stop-color="#5CA2E7"/>
<stop offset="0.588542" stop-color="#90FCE2" stop-opacity="0.53"/>
<stop offset="0.708333" stop-color="white" stop-opacity="0.85"/>
<stop offset="0.84375" stop-color="#FFC743"/>
</linearGradient>
<clipPath id="clip0">
<rect width="429" height="428" fill="white" transform="translate(139 156)"/>
</clipPath>
<clipPath id="clip1">
<rect width="429" height="428" fill="white" transform="translate(139 156)"/>
</clipPath>
</defs>
</svg>
